<?xml version="1.0" encoding="utf-8"?><!-- Generator: Adobe Illustrator 18.0.0, SVG Export Plug-In . SVG Version: 6.00 Build 0)  --><!DOCTYPE svg PUBLIC "-//W3C//DTD SVG 1.1//EN" "http://www.w3.org/Graphics/SVG/1.1/DTD/svg11.dtd"><svg xmlns="http://www.w3.org/2000/svg" xmlns:xlink="http://www.w3.org/1999/xlink" viewBox="0 0 128 128" width="128px" height="128px"><g><g><circle fill="#FFFFFF" cx="64" cy="64" r="47.5"/></g><g><g><path fill="#F16677" d="M69,92H59c-1.7,0-3-1.3-3-3s1.3-3,3-3h10c1.7,0,3,1.3,3,3S70.7,92,69,92z"/></g></g><g><path fill="#454B54" d="M64,67c-1.7,0-3-1.3-3-3V34c0-1.7,1.3-3,3-3s3,1.3,3,3v30C67,65.7,65.7,67,64,67z"/></g><g><path fill="#454B54" d="M84,67H64c-1.7,0-3-1.3-3-3s1.3-3,3-3h20c1.7,0,3,1.3,3,3S85.7,67,84,67z"/></g><g><circle fill="#454B54" cx="64" cy="64" r="6"/></g><g><path fill="#454B54" d="M64,114.5c-27.8,0-50.5-22.7-50.5-50.5S36.2,13.5,64,13.5s50.5,22.7,50.5,50.5S91.8,114.5,64,114.5z M64,19.5c-24.5,0-44.5,20-44.5,44.5s20,44.5,44.5,44.5s44.5-20,44.5-44.5S88.5,19.5,64,19.5z"/></g></g></svg>